<?xml version="1.0" encoding="UTF-8"?>
<svg width="100" height="110" viewBox="0 0 100 110" xmlns="http://www.w3.org/2000/svg">
  <!-- Shield background -->
  <path d="M 50 5 L 85 25 L 85 55 Q 50 90 50 90 Q 15 55 15 55 L 15 25 Z"
        fill="#EF0107" stroke="#002B5C" stroke-width="1.5"/>

  <!-- Gold/tan border -->
  <path d="M 50 8 L 82 26 L 82 54 Q 50 87 50 87 Q 18 54 18 54 L 18 26 Z"
        fill="none" stroke="#D4AF37" stroke-width="1.5"/>

  <!-- Arsenal text banner -->
  <rect x="20" y="15" width="60" height="12" fill="white" opacity="0.95" rx="2"/>
  <text x="50" y="25" font-size="11" font-weight="bold" text-anchor="middle" fill="#002B5C" font-family="Arial">Arsenal</text>

  <!-- Cannon (golden) -->
  <g transform="translate(50, 55)">
    <!-- Cannon barrel -->
    <rect x="-12" y="-2" width="24" height="4" fill="#D4AF37" rx="2"/>
    <!-- Cannon wheels -->
    <circle cx="-10" cy="8" r="4" fill="#8B7355" stroke="#654321" stroke-width="0.5"/>
    <circle cx="10" cy="8" r="4" fill="#8B7355" stroke="#654321" stroke-width="0.5"/>
    <!-- Connection lines -->
    <line x1="-8" y1="2" x2="-10" y2="4" stroke="#D4AF37" stroke-width="1"/>
    <line x1="8" y1="2" x2="10" y2="4" stroke="#D4AF37" stroke-width="1"/>
  </g>
</svg>