<?xml version="1.0" encoding="UTF-8"?>
<svg width="100" height="100" viewBox="0 0 100 100" xmlns="http://www.w3.org/2000/svg">
  <!-- Outer circle white -->
  <circle cx="50" cy="50" r="48" fill="white" stroke="#003399" stroke-width="2"/>

  <!-- Inner blue circle -->
  <circle cx="50" cy="50" r="42" fill="#6CABDE"/>

  <!-- Text ring MANCHESTER -->
  <path id="circlePath" cx="50" cy="50" r="35" fill="none"/>
  <text font-size="8" font-weight="bold" fill="white" letter-spacing="1">
    <textPath href="#circlePath" startOffset="50%" text-anchor="middle">
      MANCHESTER CITY
    </textPath>
  </text>

  <!-- Shield/Emblem background -->
  <circle cx="50" cy="50" r="28" fill="white" opacity="0.9"/>

  <!-- Eagle head (simplified) -->
  <g transform="translate(50, 35)">
    <circle cx="0" cy="0" r="4" fill="#003399"/>
    <path d="M -2 -2 L -5 -1 L -3 0 Z" fill="#003399"/>
    <path d="M 2 -2 L 5 -1 L 3 0 Z" fill="#003399"/>
  </g>

  <!-- Crown -->
  <g transform="translate(50, 50)">
    <rect x="-8" y="0" width="16" height="6" fill="#FFD700" rx="1"/>
    <polygon points="0,-2 -3,-5 -1,-2 0,-6 1,-2 3,-5 0,-2" fill="#FFD700"/>
  </g>

  <!-- City symbol -->
  <g transform="translate(50, 62)">
    <rect x="-5" y="0" width="10" height="5" fill="#003399"/>
    <polygon points="-4,0 -2,-2 0,0 2,-2 4,0" fill="#003399"/>
  </g>
</svg>